<svg viewBox="0 0 800 800" preserveAspectRatio="xMinYMin meet" xmlns="http://www.w3.org/2000/svg"><defs><clipPath clipPathUnits="userSpaceOnUse" id="a"><path d="M0 600h600V0H0Z"/></clipPath></defs><path d="M0 0v-453.478l599.389-16.549V0Z" style="fill:#407bc7;fill-opacity:1;fill-rule:nonzero;stroke:none" transform="matrix(1.33333 0 0 -1.33333 .815 .696)"/><g clip-path="url(#a)" transform="matrix(1.33333 0 0 -1.33333 0 800)"><path d="M0 0v-251.494c-8.965-5.984-19.658-9.462-31.148-9.462-12.578 0-24.204 4.171-33.647 11.231a36.648 36.648 0 0 0-17.026-2.762 52.977 52.977 0 0 0-25.471-6.501 52.966 52.966 0 0 0-21.392 4.492c-8.271-11.662-21.67-19.243-36.795-19.243-.521 0-1.036.01-1.552.028a49.53 49.53 0 0 0 2.988-16.997c0-26.752-21.121-48.439-47.172-48.439-16.274 0-30.625 8.463-39.103 21.338-11.832-26.519-37.905-44.941-68.17-44.941-29.382 0-54.809 17.361-67.095 42.639a39.196 39.196 0 0 0-8.093-.84c-22.084 0-39.988 18.385-39.988 41.061 0 1.247.057 2.478.164 3.697-.214-.002-.428-.005-.642-.005-16.099 0-30.77 6.275-41.82 16.571a37.486 37.486 0 0 0-9.902-1.329c-2.567 0-5.074.261-7.499.756-10.125-11.78-23.969-20.107-39.648-23.042-8.567-31.642-35.249-55.538-67.854-59.165V22.611a40.278 40.278 0 0 0 9.644 1.168c22.745 0 41.185-18.934 41.185-42.292 0-9.125-2.816-17.575-7.602-24.485 7.369-4.421 12.997-11.566 15.573-20.092a27.99 27.99 0 0 0 11.057 2.265c15.869 0 28.734-13.21 28.734-29.506 0-1.036-.052-2.058-.154-3.066a51.437 51.437 0 0 0 6.685-1.889c4.7 15.969 19.136 27.597 36.22 27.597 20.893 0 37.832-17.394 37.832-38.85 0-.341-.004-.681-.013-1.02 14.558-2.442 25.669-15.416 25.669-31.057 0-7.058-2.261-13.573-6.083-18.822 7.361-4.542 13.731-10.602 18.701-17.759a36.444 36.444 0 0 0 9.617 1.286c8.193 0 15.77-2.711 21.927-7.305 5.485 25.012 27.245 43.695 53.259 43.695 28.08 0 51.203-21.768 54.251-49.766 11.205-1.061 19.979-10.739 19.979-22.524 0-2.992-.567-5.848-1.594-8.462.68.068 1.373.103 2.073.103 4.957 0 9.513-1.758 13.112-4.699 1.601 18.661 13.883 34.171 30.53 40.042-8.567 7.964-13.95 19.473-13.95 32.275 0 24.036 18.976 43.521 42.382 43.521 10.627 0 20.34-4.016 27.778-10.65 6.872 13.124 20.107 22.209 35.465 22.901 5.008 21.953 20.628 39.711 40.997 47.261-.05.884-.079 1.775-.079 2.671C-47.67-19.983-28.039.173-3.826.173-2.538.173-1.264.112 0 0" style="fill:#4888cf;fill-opacity:1;fill-rule:evenodd;stroke:none" transform="translate(601.476 506.16)"/><path d="M0 0v-179.423c-7.767-10.757-20.22-17.732-34.259-17.732-23.306 0-42.238 19.209-42.615 43.046a60.704 60.704 0 0 0-19.617-2.487 43.949 43.949 0 0 0 2.366-14.288c0-23.747-18.744-42.994-41.867-42.994-13.7 0-25.862 6.758-33.501 17.204a64.672 64.672 0 0 0-19.997-1.16c-10.478-14.582-27.324-24.041-46.324-24.041a56.066 56.066 0 0 0-24.684 5.702 43.1 43.1 0 0 0-14.23-1.566c.352-2.594.538-5.244.538-7.938 0-31.506-24.872-57.045-55.552-57.045-15.066 0-28.725 6.16-38.732 16.159a54.135 54.135 0 0 0-25.441-6.324c-27.717 0-50.69 20.846-54.87 48.101a45.29 45.29 0 0 0-22.233-5.809c-12.792 0-24.374 5.309-32.775 13.899-17.253-19.418-51.143-31.603-69.71-31.603-18.565 0-18.7 47.678-27.362 50.371V79.039c12.205-3.598 21.137-15.145 21.137-28.836 0-5.584-1.488-10.811-4.076-15.288.556.028 1.118.043 1.681.043 8.903 0 16.983-3.616 22.925-9.495 7.119 11.613 19.714 19.33 34.065 19.33 22.216 0 40.227-18.494 40.227-41.307 0-5.342-.987-10.447-2.785-15.134 1.852.25 3.74.38 5.659.38 23.804 0 43.101-19.815 43.101-44.259 0-8.92-2.573-17.225-6.995-24.175 2.278.374 4.614.571 6.995.571 20.857 0 38.329-14.885 42.894-34.874a37.465 37.465 0 0 0 12.528 2.148c8.065 0 15.548-2.554 21.73-6.912 7.39 19.732 26.022 33.737 47.841 33.737 19.998 0 37.318-11.764 45.759-28.918 7.007 4.905 15.125 8.261 23.886 9.59.117.29.234.578.356.865-4.554 6.061-7.266 13.658-7.266 21.905 0 19.825 15.652 35.899 34.959 35.899 12.476 0 23.425-6.712 29.612-16.811 1.136.061 2.28.09 3.433.09a64.439 64.439 0 0 0 30.667-7.737 64.439 64.439 0 0 0 6.959 13.653c-2.683 4.132-4.247 9.096-4.247 14.435 0 14.395 11.363 26.065 25.381 26.065 9.508 0 17.795-5.37 22.143-13.316a61.1 61.1 0 0 0 8.028.529c11.548 0 22.361-3.233 31.63-8.859a38.421 38.421 0 0 0-2.75 14.324c0 20.778 16.404 37.623 36.635 37.623C-17.095 14.305-6.713 8.712 0 0" style="fill:#62a7e0;fill-opacity:1;fill-rule:evenodd;stroke:none" transform="translate(601.476 355.32)"/><path d="M0 0c.091.204.184.406.277.61a32.247 32.247 0 0 0-1.552 1.688 30.612 30.612 0 0 0-.52-.558A48.323 48.323 0 0 0 0 0m416.909 84.157V10.355l-14.403-43.11c-2.468-7.392-14.684-4.857-22.782-4.857-3.338 0-6.609.298-9.792.864-7.978-12.932-22.037-21.518-38.048-21.518-12.689 0-24.15 5.395-32.331 14.068-6.476-19.078-24.145-32.771-44.932-32.771-21.12 0-39.023 14.134-45.234 33.697-7.409-6-16.762-9.583-26.931-9.583-1.235 0-2.459.054-3.669.157-6.618-12.678-19.644-21.303-34.633-21.303-10.778 0-20.54 4.46-27.637 11.679-7.286-4.598-15.861-7.252-25.042-7.252-8.722 0-16.9 2.395-23.944 6.58a46.706 46.706 0 0 0-23.945-6.58c-13.361 0-25.444 5.623-34.13 14.683-7.53-16.504-23.851-27.938-42.774-27.938-17.284 0-32.396 9.539-40.623 23.766-6.498 2.555-12.294 6.57-17.007 11.65-8.703-7.021-19.676-11.211-31.605-11.211-3.186 0-6.304.301-9.329.874-10.225-16.027-47.509-37.622-47.92-26.618l-4.154 111.313V75.49a35.934 35.934 0 0 0 15.39 3.448c4.061 0 7.967-.675 11.622-1.92 1.906 12.354 8.205 23.206 17.203 30.818a24.115 24.115 0 0 0-1.528 8.478c0 13.036 10.292 23.603 22.987 23.603 12.355 0 22.433-10.009 22.964-22.563 17.056-4.98 30.308-19.239 34.254-37.125a47.885 47.885 0 0 0 9.979 4.417c1.593 17.215 15.711 30.683 32.894 30.683 18.249 0 33.043-15.191 33.043-33.933 0-8.496-3.042-16.266-8.07-22.218a51.02 51.02 0 0 0 2.435-5.869c4.045 1.924 8.55 3 13.302 3 16.232 0 29.612-12.534 31.462-28.693a46.807 46.807 0 0 0 13.55-5.418 46.718 46.718 0 0 0 23.944 6.58l.222-.003c4.274 17.518 19.707 30.493 38.09 30.493 16.717 0 30.99-10.725 36.659-25.839a42.426 42.426 0 0 0 15.179 3.113c1.668 24.243 21.347 43.379 45.379 43.379 2.156 0 4.274-.156 6.348-.455a35.543 35.543 0 0 0-.121 2.914c0 18.742 14.794 33.934 33.045 33.934 18.248 0 33.043-15.192 33.043-33.934a34.86 34.86 0 0 0-.852-7.673 48.402 48.402 0 0 0 19.064-4.285c-.011.379-.014.759-.014 1.14 0 9.665 2.923 18.626 7.904 26.009-8.891 5.454-14.846 15.432-14.846 26.843 0 17.253 13.622 31.242 30.426 31.242 16.802 0 30.424-13.989 30.424-31.242 0-2.741-.342-5.398-.988-7.931 15.67-3.063 28.432-14.561 33.632-29.717a41.578 41.578 0 0 0 12.84-2.609" style="fill:#99d5f4;fill-opacity:1;fill-rule:evenodd;stroke:none" transform="translate(184.567 119.056)"/><path d="M0 0v-131.962h-600.174c-.034.176-.07.354-.102.529-.198.026-.392.058-.589.086V14.899c2.042.339 4.145.514 6.291.514 14.951 0 27.738-8.537 32.944-20.613a48.182 48.182 0 0 0 10.637 1.182c4.835 0 9.49-.713 13.85-2.027 5.437 16.509 22.069 28.525 41.748 28.525 24.094 0 43.625-18.013 43.625-40.232 0-8.534-2.884-16.446-7.799-22.959 7.721-7.021 12.897-16.419 14.129-26.907l.283.002c5.85 0 11.349-1.383 16.136-3.81 4.835 23.63 27.332 41.505 54.359 41.505 17.406 0 32.932-7.415 43.073-19.003 6.952 12.997 21.464 21.939 38.244 21.939 20.283 0 37.254-13.065 41.563-30.567 8.757 9.85 20.222 17.575 33.347 22.2 3.432 16.831 19.453 29.567 38.701 29.567.904 0 1.8-.03 2.69-.086 7.858 9.702 20.408 15.985 34.553 15.985 23.803 0 43.099-17.795 43.099-39.748 0-.432-.008-.862-.024-1.293 8.602 3.666 18.184 5.71 28.279 5.71 13.903 0 26.825-3.879 37.564-10.52C-30.499-18.852-17.339-5.125 0 0" style="fill:#fff;fill-opacity:1;fill-rule:evenodd;stroke:none" transform="translate(601.476 131.962)"/></g></svg>
